<svg xmlns="http://www.w3.org/2000/svg" width="36.174" height="36.174" enable-background="new 0 0 36.174 36.174" viewBox="0 0 36.174 36.174">
    <path d="M23.921 20.528c0 3.217-2.617 5.834-5.834 5.834s-5.833-2.617-5.833-5.834 2.616-5.834 5.833-5.834 5.834 2.618 5.834 5.834zm12.253-8.284v16.57c0 2.209-1.791 4-4 4H4c-2.209 0-4-1.791-4-4v-16.57c0-2.209 1.791-4 4-4h4.92V6.86c0-1.933 1.566-3.5 3.5-3.5h11.334c1.934 0 3.5 1.567 3.5 3.5v1.383h4.92c2.209.001 4 1.792 4 4.001zm-9.253 8.284c0-4.871-3.963-8.834-8.834-8.834-4.87 0-8.833 3.963-8.833 8.834s3.963 8.834 8.833 8.834c4.871 0 8.834-3.963 8.834-8.834z"/>
</svg>
